<svg width="83" height="98" viewBox="0 0 83 98" fill="none" xmlns="http://www.w3.org/2000/svg">
<path d="M63.449 21.6279C63.449 21.6279 58.5401 39.4589 56.1291 53.2439C53.7181 67.0279 42.568 81.1609 31.549 85.6769C20.53 90.1929 9.41204 94.3699 9.41204 94.3699C9.41204 94.3699 6.25305 82.9539 6.62405 72.8979C6.99505 62.8419 9.07903 54.8639 15.732 47.3899C22.385 39.9159 45.664 27.5729 51.514 23.6489C57.365 19.7249 63.336 15.5819 63.449 21.6279Z" fill="#A53D21"/>
<path d="M62.3562 21.7507C60.9402 26.9097 59.6392 32.1027 58.4112 37.3097C56.1792 46.7707 55.3242 56.8657 50.7382 65.5637C45.9942 74.5617 38.8252 81.9957 29.3652 85.8907C22.6152 88.6707 15.7992 91.3037 8.96721 93.8737C9.47721 93.9417 9.98621 94.0097 10.4962 94.0777C5.93421 77.2747 5.48721 56.2467 20.2152 44.2767C26.6502 39.0467 33.9872 34.8637 41.1102 30.6577C44.0582 28.9167 47.0352 27.2197 49.9542 25.4297C52.2462 24.0247 61.8232 16.7777 62.3592 21.9177C62.4412 22.7047 64.6242 22.2157 64.5322 21.3357C63.6372 12.7587 51.2332 23.0847 48.2312 24.9097C39.6612 30.1227 30.8142 34.9027 22.6182 40.7117C14.8192 46.2377 9.00222 53.1407 6.78122 62.6727C4.34722 73.1167 5.53722 84.4017 8.32222 94.6597C8.48222 95.2477 9.50021 94.9957 9.85121 94.8637C17.6332 91.9357 25.6492 89.1957 33.1692 85.6507C40.7602 82.0727 46.8882 75.4967 51.2082 68.4167C56.4232 59.8707 57.5582 50.4107 59.7212 40.8237C61.1812 34.3507 62.7802 27.9027 64.5362 21.5037C64.7692 20.6597 62.5732 20.9587 62.3562 21.7507Z" fill="#820005"/>
<path d="M9.40963 94.3689C9.40963 94.3689 30.6096 68.6359 38.2876 54.5989C45.9656 40.5619 78.6676 6.30286 78.2916 4.38686C77.9146 2.47086 75.2626 1.58987 73.9046 1.98787C72.5466 2.38587 64.9306 14.7469 55.2786 27.7039C45.6266 40.6619 44.4696 40.1709 35.7036 54.8959C26.9376 69.6199 7.96563 92.5829 8.76263 93.7309C9.55863 94.8779 9.40963 94.3689 9.40963 94.3689Z" fill="#820005"/>
<path d="M21.2408 89.7987C21.2408 89.7987 20.0118 81.9307 18.8418 81.2917C17.6718 80.6517 7.55078 80.0547 7.55078 80.0547" stroke="#820005" stroke-miterlimit="10" stroke-linecap="round" stroke-linejoin="round"/>
<path d="M30.6281 86.3136C30.6281 86.3136 29.8792 70.2316 28.9352 67.0076C27.9912 63.7846 6.91016 65.0766 6.91016 65.0766" stroke="#820005" stroke-miterlimit="10" stroke-linecap="round" stroke-linejoin="round"/>
<path d="M44.3793 76.0247C44.3793 76.0247 40.0763 53.1547 39.3403 51.8967C38.6033 50.6387 16.5993 48.1487 14.3633 49.6327" stroke="#820005" stroke-miterlimit="10" stroke-linecap="round" stroke-linejoin="round"/>
<path d="M56.0762 56.6347C56.0762 56.6347 51.3482 39.2307 49.1552 38.0307C46.9622 36.8307 30.8672 36.3867 30.8672 36.3867" stroke="#820005" stroke-miterlimit="10" stroke-linecap="round" stroke-linejoin="round"/>
<path d="M59.6984 41.3289C59.6984 41.3289 58.4614 30.3939 56.1214 29.1139C53.7814 27.8339 43.5664 27.7559 43.5664 27.7559" stroke="#820005" stroke-miterlimit="10" stroke-linecap="round" stroke-linejoin="round"/>
</svg>
