<svg width="518" height="48" viewBox="0 0 518 48" fill="none" xmlns="http://www.w3.org/2000/svg">
<path d="M292.287 28.292C288.783 30.954 284.547 28.537 282.068 26.583C279.477 24.541 276.407 23.313 273.233 23.204C261.865 22.814 260.541 35.643 260.541 35.643C260.541 35.643 267.813 23.501 276.414 27.716C276.414 27.716 282.411 30.31 283.462 38.093C283.462 38.093 285.355 34.418 283.023 30.905C285.209 31.932 288.804 32.905 292.287 28.292Z" fill="#1A1A1A"/>
<path d="M223.891 28.293C227.395 30.955 231.631 28.538 234.11 26.584C236.701 24.542 239.771 23.314 242.945 23.205C254.313 22.815 255.637 35.644 255.637 35.644C255.637 35.644 248.365 23.502 239.764 27.717C239.764 27.717 233.767 30.311 232.717 38.094C232.717 38.094 230.824 34.419 233.156 30.906C230.969 31.932 227.373 32.905 223.891 28.293Z" fill="#1A1A1A"/>
<path d="M268.751 20.467C264.733 19.695 261.07 24.652 258.825 28.643C258.556 29.125 258.309 29.592 258.084 30.027C257.869 29.592 257.622 29.126 257.353 28.659C255.108 24.668 251.445 19.695 247.428 20.468C250.565 15.608 255.441 18.134 258.084 26.052C260.737 18.133 265.614 15.607 268.751 20.467Z" fill="#1A1A1A"/>
<path d="M256.529 15.686C256.069 13.266 258.089 10 258.089 10C258.089 10 260.109 13.266 259.649 15.686C259.305 17.489 256.872 17.489 256.529 15.686Z" fill="#1A1A1A"/>
<path d="M292.375 35.9419C315.298 39.1819 339.031 39.5079 362.074 37.7719C371.424 37.0679 380.752 35.9279 389.967 34.1849C399.789 32.3279 409.17 29.442 418.668 26.391C434.85 21.192 452.032 17.3639 469.13 18.1079C474.969 18.3619 482 18.8519 487.309 21.6489C488.162 22.0989 488.921 20.804 488.066 20.354C483.957 18.19 478.837 17.4979 474.305 16.9999C459.635 15.3869 444.582 17.7849 430.391 21.4319C420.23 24.0429 410.45 27.8799 400.269 30.4089C390.73 32.7789 381.006 34.3749 371.238 35.4329C354.146 37.2849 336.885 37.5589 319.719 36.7629C310.787 36.3489 301.493 35.7279 292.774 34.4959C291.83 34.3619 291.422 35.8069 292.375 35.9419Z" fill="#1A1A1A"/>
<path d="M225.772 34.5469C202.437 37.8449 177.78 38.1059 154.195 36.1429C144.441 35.3309 134.719 34.0299 125.136 32.0259C115.11 29.9299 105.592 26.5309 95.8023 23.6089C80.4603 19.0309 64.1823 15.7699 48.0933 16.7269C42.3713 17.0679 35.6733 17.6689 30.4803 20.4049C29.6263 20.8549 30.3833 22.1499 31.2373 21.6999C35.4703 19.4699 40.9323 18.8399 45.6003 18.4139C61.1623 16.9939 77.0033 19.8699 91.9403 24.0529C101.911 26.8449 111.56 30.5199 121.678 32.8059C130.879 34.8849 140.228 36.2859 149.612 37.2229C166.517 38.9109 183.573 39.0919 200.534 38.2299C209.087 37.7949 217.685 37.1919 226.171 35.9919C227.123 35.8589 226.718 34.4129 225.772 34.5469Z" fill="#1A1A1A"/>
<path d="M17.5278 11.7261C16.7508 15.7211 21.7368 19.3631 25.7508 21.5951C26.2358 21.8621 26.7058 22.1081 27.1428 22.3321C26.7058 22.5461 26.2358 22.7911 25.7668 23.0581C21.7528 25.2901 16.7518 28.9321 17.5288 32.9271C12.6408 29.8081 15.1818 24.9591 23.1448 22.3321C15.1808 19.6941 12.6398 14.8451 17.5278 11.7261Z" fill="#1A1A1A"/>
<path d="M12.718 23.8772C10.284 24.3352 7 22.3262 7 22.3262C7 22.3262 10.285 20.3182 12.718 20.7752C14.532 21.1172 14.532 23.5362 12.718 23.8772Z" fill="#1A1A1A"/>
<path d="M501.019 11.7261C501.796 15.7211 496.811 19.3631 492.796 21.5951C492.311 21.8621 491.841 22.1081 491.404 22.3321C491.841 22.5461 492.31 22.7911 492.78 23.0581C496.794 25.2901 501.795 28.9321 501.018 32.9271C505.906 29.8081 503.365 24.9591 495.402 22.3321C503.366 19.6941 505.907 14.8451 501.019 11.7261Z" fill="#1A1A1A"/>
<path d="M505.827 23.8772C508.261 24.3352 511.545 22.3262 511.545 22.3262C511.545 22.3262 508.26 20.3182 505.827 20.7752C504.014 21.1172 504.014 23.5362 505.827 23.8772Z" fill="#1A1A1A"/>
</svg>
